# xmcd CD database file
#
# Track frame offsets:
#	150
#	14665
#	35192
#	51670
#	68990
#	90872
#	110882
#	126790
#	145185
#	165285
#	181505
#	200235
#	216177
#	234270
#	250580
#	266537
#	283292
#	298530
#	312887
#
# Disc length: 4407 seconds
#
# Revision: 39
# Processed by: cddbd v1.5.2PL0 Copyright (c) Steve Scherf et al.
# Submitted via: CDex 2.23
#
DISCID=20113513
DTITLE=Shania Twain - Up!
DYEAR=2002
DGENRE=Country
TTITLE0=Up!
TTITLE1=I'm Gonna Getcha Good!
TTITLE2=She's Not Just A Pretty Face
TTITLE3=Juanita
TTITLE4=Forever And For Always
TTITLE5=Ain't No Particular Way
TTITLE6=It Only Hurts When I'm Breathing
TTITLE7=Nah!
TTITLE8=(Wanna Get to Know You) That Good!
TTITLE9=C'est La Vie
TTITLE10=I'm Jealous
TTITLE11=Ka-Ching!
TTITLE12=Thank You Baby! (For Makin' Someday Come So Soon)
TTITLE13=Waiter! Bring Me Water!
TTITLE14=What a Way to Wanna Be!
TTITLE15=I Ain't Goin' Down
TTITLE16=I'm Not In The Mood (To Say No)!
TTITLE17=In My Car (I'll Be The Driver)
TTITLE18=When You Kiss Me
EXTD=Location:  - UPC: 008817034423 - Catalogue number: 170 344-2 - Label: Mercury - ASIN: B000071IYO - Release Date: 2002 11 18 - Discogs: a130060,m132439,r901520 - MUSICBRAINZ_ALBUMID: 480bdf50-a119-49cb-b3d1-54e1e811b4fd - AMG: MN0000161808,MW0000662317 - YEAR
EXTD=: 2002
EXTT0=
EXTT1=
EXTT2=
EXTT3=
EXTT4=
EXTT5=
EXTT6=
EXTT7=
EXTT8=
EXTT9=
EXTT10=
EXTT11=
EXTT12=
EXTT13=
EXTT14=
EXTT15=
EXTT16=
EXTT17=
EXTT18=
PLAYORDER=
